<?xml version="1.0" encoding="iso-8859-1"?>
<!-- Uploaded to: SVG Repo, www.svgrepo.com, Generator: SVG Repo Mixer Tools -->
<svg version="1.1" id="Layer_1" xmlns="http://www.w3.org/2000/svg" xmlns:xlink="http://www.w3.org/1999/xlink" 
	 viewBox="0 0 512 512" xml:space="preserve">
<circle style="fill:#B5F1F4;" cx="256" cy="256" r="256"/>
<path style="fill:#84DBFF;" d="M508.463,298.536L390.637,180.71L215.202,288.754l-91.857,70.627l151.902,151.902
	C393.418,502.498,489.234,413.493,508.463,298.536z"/>
<path style="fill:#FC6F58;" d="M364.177,369.778H147.823c-18.803,0-34.045-15.243-34.045-34.045V202.126
	c0-18.803,15.243-34.045,34.045-34.045h216.354c18.803,0,34.045,15.243,34.045,34.045v133.606
	C398.222,354.535,382.979,369.778,364.177,369.778z"/>
<path style="fill:#F1543F;" d="M364.177,168.081H256.288v201.697h107.889c18.803,0,34.045-15.243,34.045-34.045V202.126
	C398.222,183.324,382.979,168.081,364.177,168.081z"/>
<rect x="113.778" y="203.421" style="fill:#324A5E;" width="284.444" height="48.269"/>
<rect x="256.293" y="203.421" style="fill:#2B3B4E;" width="141.929" height="48.269"/>
</svg>